#!OML:ASF F:\VICON\USERDATA\INSTALL\rory3\rory3.ASF
:FULLY-SPECIFIED
:DEGREES
45
root -0.04275328510625581 18.16703116512096 11.172731499890725 -3.223428008813535 -2.4000401124530306 -6.092198119954475
lfemur -22.643108689465173 3.0606283721385394 -13.087608946812882
ltibia 62.11265968030603
lfoot -5.136890466986298 -0.26219219650372727
ltoes -5.135689869123698
rfemur -3.7066546225789985 6.9004233187347985 33.480779277900645
rtibia 28.48458116402549
rfoot -16.335134459222942 -6.556180292399664
rtoes 7.77178344471799
lowerback 10.11932821043491 1.2466807465663625 5.341044684241137
upperback 0.48618549615188283 2.403730160586151 2.3745367662637245
thorax -5.036959215522878 1.0856797699807221 -0.6414793716845592
lowerneck -16.340686824936725 -3.0460113163567892 -1.6766267997423567
upperneck 21.387573738184404 -3.9689546805217795 0.8934611993305348
head 9.530683645593191 -1.894269823039276 0.06714665121113438
lclavicle -1.3371476928541026e-15 1.474123417348546e-15
lhumerus -33.21639227244887 -0.5153884845290349 84.56323578353054
lradius 26.614902442531616
lwrist 6.355734856796245
lhand -26.76342082291609 23.883263611355027
lfingers 7.12502
lthumb -0.19154586240631366 53.861713986105805
rclavicle -1.3371476928541026e-15 1.474123417348546e-15
rhumerus -26.55915488815807 -14.929668580601145 -80.62372294753294
rradius 24.505974705105043
rwrist 5.170872570961239
rhand -17.560595845844155 20.499691194804512
rfingers 7.12502
rthumb 8.694313519490384 -9.293637439546687
46
root -0.03507931728585051 18.11102492717326 11.233781432774345 -2.757543110979202 -3.1749731591057957 -6.808698084509091
lfemur -25.09356905159307 2.0634639093808738 -12.414476311516669
ltibia 53.63734509551335
lfoot -6.007348454553739 2.4609564246086277
ltoes -4.558746676083934
rfemur -1.6724856558081012 6.982972232025489 34.209363345292616
rtibia 26.853618477113308
rfoot -18.059308223478894 -7.045864281791711
rtoes 7.498476608629083
lowerback 10.08392784132871 1.5669273183165298 6.14151119326565
upperback 0.4433258783528334 2.9190397070408887 2.2918953533323343
thorax -5.0307579697251805 1.3201869543091977 -1.3064682915403725
lowerneck -16.54748501061079 -3.055595820642433 -1.628847834548542
upperneck 21.122637147200013 -3.9889756161763192 0.8729864205964635
head 9.461691407980453 -1.8982881897958477 0.04972086257453569
lclavicle -1.7720117534381947e-15 1.0734637320714557e-15
lhumerus -34.25716091255059 -0.19323906858904916 84.60340576716403
lradius 26.39622880375807
lwrist 6.45470659900422
lhand -26.871502897790947 23.642313318872645
lfingers 7.12502
lthumb -0.295933414211885 53.61845080166819
rclavicle -1.7720117534381947e-15 1.0734637320714555e-15
rhumerus -25.561889972456882 -12.838220713262869 -81.37898742533326
rradius 25.73802750166077
rwrist 3.5256389524762763
rhand -17.90492879984534 21.198663255555868
rfingers 7.12502
rthumb 8.362007150978098 -8.610203716909504
47
root -0.012772602005353184 18.05161531626683 11.979615551701492 -2.1535927239279746 -3.748939816168296 -7.329789929249509
lfemur -25.947064204405052 0.35465759855193024 -11.23755256591176
ltibia 43.48286919457634
lfoot -5.985010056502711 5.1498480279609735
ltoes -3.8267574089227785
rfemur 1.0292916967478423 7.085242203598767 34.95371136821374
rtibia 25.421580574585057
rfoot -19.28402001001858 -7.318668140304907
rtoes 6.838127944597505
lowerback 9.967880069754429 1.9034792164633578 6.917985090114004
upperback 0.39804530592885223 3.442473946393332 2.2769397945171237
thorax -4.971021811323976 1.5614390340374842 -1.7637332548292357
lowerneck -16.773014733939405 -3.061211936001264 -1.562568575624078
upperneck 20.870798386157517 -4.001810708472634 0.9009562209171724
head 9.404019142543538 -1.8993470218756694 0.046903721897576967
lclavicle -1.639900999022815e-15 1.1950012069305046e-15
lhumerus -34.99258682356404 0.3820579586940358 84.67746900978652
lradius 26.13035942173774
lwrist 6.2836662954421545
lhand -26.9243521798731 23.46841088445733
lfingers 7.12502
lthumb -0.34697490841185785 53.442635320334105
rclavicle -1.639900999022815e-15 1.1950012069305044e-15
rhumerus -24.51748323880782 -11.024451552383796 -81.79671838694098
rradius 26.94626065652539
rwrist 2.3365075363762786
rhand -18.148765975474227 22.225607452657915
rfingers 7.12502
rthumb 8.12667182300105 -7.596712003059525
48
root 0.03373056216317566 17.987351511378105 13.160916618796044 -1.4898595999645368 -4.205105308307495 -7.672336250016533
lfemur -25.649171001186435 -1.8477945805734748 -9.780688912363166
ltibia 32.53709379638603
lfoot -5.682624684547115 7.695925921680964
ltoes -3.259032974014959
rfemur 4.206576767039344 7.244948367564879 35.582362620351915
rtibia 24.048923114992604
rfoot -20.208310379249653 -7.47652699369668
rtoes 5.530828683991745
lowerback 9.759202720320308 2.2488432277286505 7.567478278329691
upperback 0.351503485101672 3.951750507143738 2.2851905851385292
thorax -4.864485204539002 1.8006736662954006 -2.0611671266442713
lowerneck -16.976419315815267 -3.0632227830523266 -1.4806803827957316
upperneck 20.669780861770054 -4.010135676509852 0.9646305720550847
head 9.362988035961633 -1.8987700844801496 0.053714621355214334
lclavicle -1.2405601836679876e-15 1.5628415396285221e-15
lhumerus -35.571941997567734 1.1604970265027008 84.73821162969408
lradius 25.724504186477873
lwrist 5.882602667701082
lhand -26.950318372373463 23.43672014982128
lfingers 7.12502
lthumb -0.3720535950895145 53.41006868116572
rclavicle -1.2405601836679876e-15 1.5628415396285221e-15
rhumerus -23.50046990000406 -9.657206404515792 -81.9822720847926
rradius 28.02206257620748
rwrist 1.567936366875796
rhand -18.286487980662457 23.171069253666378
rfingers 7.12502
rthumb 7.993740517852827 -6.66020906351638
49
root 0.07448474367185492 17.911605577621216 13.501320888292952 -0.9738475032026228 -4.709111923668507 -7.946613864174527
lfemur -25.310618988011623 -3.9893143351878133 -8.936510789822892
ltibia 22.33699642073871
lfoot -5.7943859265252255 9.131320188851408
ltoes -3.4005198942097032
rfemur 6.701600496026931 7.281542708192532 35.624764639276414
rtibia 22.561687209374426
rfoot -21.350562745208997 -7.542518800812549
rtoes 3.1966660985338042
lowerback 9.491933718658235 2.491993006399465 7.762946719103299
upperback 0.29719194991147463 4.272706302548365 2.223293385906314
thorax -4.768711949336614 1.9574252294827117 -2.3165251802436946
lowerneck -17.163377032468503 -3.077775830077158 -1.4315977599505951
upperneck 20.519520720724323 -4.03992492281875 1.0074654737474606
head 9.333271790103534 -1.9068577628060976 0.0511076246063636
lclavicle -1.5280949224597498e-15 1.298423775523259e-15
lhumerus -36.32659788535732 1.8344408990843102 84.64558145293117
lradius 24.95633638170114
lwrist 5.1722564028718665
lhand -27.061118558461263 23.286112091503213
lfingers 7.12502
lthumb -0.479066408712538 53.25932260029642
rclavicle -1.5280949224597498e-15 1.298423775523259e-15
rhumerus -22.819146863276984 -9.074591675489879 -82.16489669828474
rradius 28.71225504069283
rwrist 1.053158527538189
rhand -18.397296078257742 23.67658032567973
rfingers 7.12502
rthumb 7.88678678566678 -6.159003406354566
